Coordinates
version=1
nRows=29
nColumns=24
inDegrees=yes

Units are S.I. units (second, meters, Newtons, ...)
Angles are in degrees.

endheader
time	pelvis_tilt	pelvis_list	pelvis_rotation	pelvis_tx	pelvis_ty	pelvis_tz	hip_flexion_r	hip_adduction_r	hip_rotation_r	knee_angle_r	ankle_angle_r	subtalar_angle_r	mtp_angle_r	hip_flexion_l	hip_adduction_l	hip_rotation_l	knee_angle_l	ankle_angle_l	subtalar_angle_l	mtp_angle_l	lumbar_extension	lumbar_bending	lumbar_rotation
      0.47100000	     -3.54123515	      6.05765575	     -2.51354069	     -0.81467140	      1.06065919	      0.30985987	     27.59927788	     -1.66466140	     -6.00311945	     -4.14622266	      4.25255234	     -0.24139069	      0.05537413	     -7.96099795	     11.54280052	     -0.52939939	     -7.44156215	      8.04288161	     -3.71192414	     -0.12412153	      7.00519125	     -4.20577260	      0.39661877
      0.47516667	     -3.57594866	      6.10297528	     -2.44801626	     -0.80882666	      1.06020038	      0.30974332	     27.55995501	     -1.68797226	     -5.86863694	     -4.31820300	      4.16795172	     -0.17843646	      0.05769205	     -8.04247262	     11.56603594	     -0.47919836	     -7.88779580	      7.92760678	     -3.69500755	     -0.14325010	      7.00542310	     -4.16108386	      0.37365921
      0.47933333	     -3.57802211	      6.10968395	     -2.46008499	     -0.80278767	      1.05979133	      0.30977379	     27.47650582	     -1.63886839	     -5.62874815	     -4.54116382	      4.07044422	     -0.03509714	      0.06903530	     -8.16477715	     11.54681899	     -0.50612856	     -8.31304541	      7.67323544	     -3.53083499	     -0.20177728	      7.00640597	     -4.17821787	      0.31148552
      0.48350000	     -3.56046139	      6.11576596	     -2.42887104	     -0.79672562	      1.05945081	      0.30967462	     27.37874422	     -1.62017823	     -5.51483064	     -4.83612410	      4.05498343	     -0.00769517	      0.07273558	     -8.28081227	     11.52284328	     -0.52900578	     -8.81681663	      7.62287793	     -3.49457961	     -0.21235167	      7.08532376	     -4.13996457	      0.30276451
      0.48766667	     -3.53220056	      6.11775500	     -2.39829841	     -0.79062422	      1.05914622	      0.30958594	     27.26368172	     -1.60032682	     -5.34516501	     -5.16319493	      4.03285739	      0.03523944	      0.07768266	     -8.38171267	     11.48661888	     -0.58140698	     -9.37249227	      7.54102945	     -3.40794065	     -0.22160877	      7.15564535	     -4.09420132	      0.29057810
      0.49183333	     -3.38649038	      6.11585976	     -2.63832890	     -0.78444695	      1.05889959	      0.31014563	     27.04342126	     -1.43697380	     -4.79303438	     -5.52684482	      3.99593176	      0.04673467	      0.11717570	     -8.56876902	     11.45058186	     -1.17454430	     -9.93144497	      7.31326257	     -2.45379631	     -0.27452340	      7.11445826	     -4.14048334	      0.22828400
      0.49600000	     -3.36002198	      6.10293461	     -2.55734072	     -0.77828875	      1.05866646	      0.30997661	     26.90954814	     -1.43194021	     -4.62055297	     -5.88432240	      3.94041043	      0.05673085	      0.12251220	     -8.61110606	     11.37496132	     -1.19971387	    -10.61391212	      7.26620820	     -2.38729659	     -0.27825593	      7.15665129	     -4.06381096	      0.22700114
      0.50016667	     -3.21570714	      6.09141512	     -2.72165387	     -0.77212900	      1.05849537	      0.31049470	     26.67045544	     -1.29288582	     -4.08342605	     -6.25583963	      3.62115767	     -0.20397107	      0.16744841	     -8.72417520	     11.29261495	     -1.75798243	    -11.32934603	      7.04676818	     -1.27676662	     -0.28407505	      7.04483733	     -4.05238575	      0.22475206
      0.50433333	     -3.21544769	      6.04154126	     -2.64289447	     -0.76585177	      1.05828557	      0.31055284	     26.52907731	     -1.22859336	     -3.80999568	     -6.59960426	      3.47979547	     -0.32018536	      0.18975063	     -8.66017658	     11.13359323	     -1.98351006	    -12.16728443	      6.98650221	     -0.96936593	     -0.27641530	      6.96540175	     -3.96391472	      0.23277344
      0.50850000	     -3.03807516	      5.99321734	     -2.76880312	     -0.75963214	      1.05823917	      0.31112085	     26.20953801	     -1.06987956	     -3.20512196	     -6.92458804	      3.09538969	     -0.92546934	      0.27457035	     -8.74652844	     10.97382241	     -2.50442281	    -13.03492291	      6.97277568	      0.23841390	     -0.20348642	      6.99107703	     -3.94317904	      0.31125212
      0.51266667	     -2.95256641	      5.98634692	     -2.82149501	     -0.75348813	      1.05809385	      0.31126895	     26.03572794	     -1.01580623	     -2.94195091	     -7.34604045	      2.72940423	     -1.08951263	      0.32861461	     -8.69383510	     10.87155018	     -2.82734407	    -13.95946190	      6.61682772	      0.81077830	     -0.14477930	      6.94538219	     -3.88094753	      0.33268221
      0.51683333	     -2.92063849	      5.93384039	     -2.78563217	     -0.74724449	      1.05795777	      0.31131660	     25.88021387	     -0.95025615	     -2.76515431	     -7.73725686	      2.52016923	     -1.14302073	      0.34964650	     -8.54708523	     10.69376039	     -3.10482848	    -14.99901565	      6.38728429	      1.09398105	     -0.11434485	      6.86864651	     -3.77363000	      0.32424064
      0.52100000	     -2.76426367	      5.86196574	     -2.89534507	     -0.74100430	      1.05796000	      0.31192814	     25.56390056	     -0.78014754	     -2.19007224	     -8.03978055	      1.93595662	     -1.73476239	      0.43396398	     -8.49541557	     10.46458795	     -3.62458893	    -16.07063453	      6.07546947	      2.39508930	      0.05658147	      6.93750680	     -3.75032831	      0.37188952
      0.52516667	     -2.67861869	      5.80589610	     -2.93218689	     -0.73486101	      1.05788507	      0.31221502	     25.36136785	     -0.67828801	     -1.92775154	     -8.42679021	      1.48753029	     -2.10395126	      0.50874107	     -8.31366105	     10.25521577	     -4.02345615	    -17.24257233	      5.69494947	      3.15325271	      0.22192766	      6.86066826	     -3.63673052	      0.39590101
      0.52933333	     -2.63385366	      5.73858108	     -2.92761162	     -0.72870926	      1.05778375	      0.31227750	     25.21160144	     -0.60038438	     -1.84048496	     -8.85058748	      1.26736890	     -2.16835835	      0.52988431	     -8.04790005	     10.03545155	     -4.33647735	    -18.50779812	      5.40608846	      3.42317912	      0.27275653	      6.75602819	     -3.49267216	      0.38117217
      0.53350000	     -2.48546132	      5.62519882	     -2.98948857	     -0.72251209	      1.05785091	      0.31289177	     24.88817250	     -0.41370357	     -1.37002016	     -9.13582193	      0.59700501	     -2.84295907	      0.61964588	     -7.86410330	      9.71129219	     -4.79669343	    -19.80836626	      4.87381126	      4.75109209	      0.54140251	      6.83624082	     -3.43368061	      0.42552131
      0.53766667	     -2.44461602	      5.54901607	     -3.00533816	     -0.71645249	      1.05773746	      0.31296887	     24.75787945	     -0.32764465	     -1.32735882	     -9.58516559	      0.38325678	     -2.91811393	      0.64065125	     -7.50530454	      9.46588066	     -5.11306784	    -21.21429385	      4.52751023	      5.01521805	      0.60337940	      6.66967279	     -3.23591534	      0.40183716
      0.54183333	     -2.34298873	      5.46393559	     -3.05586936	     -0.71044203	      1.05771594	      0.31329185	     24.54543908	     -0.20977350	     -1.10899882	     -9.97672214	     -0.20053478	     -3.30087168	      0.68912168	     -7.17807570	      9.18068799	     -5.44188376	    -22.63271830	      3.67740942	      6.07197286	      0.77823072	      6.66632171	     -3.03921400	      0.40512341
      0.54600000	     -2.27031327	      5.32209705	     -3.07676921	     -0.70437031	      1.05768845	      0.31367153	     24.33282927	     -0.03540395	     -0.89888168	    -10.33775638	     -0.63363750	     -3.78663840	      0.74518541	     -6.78362540	      8.80926683	     -5.78367900	    -24.15394080	      3.13137137	      6.91675023	      0.99466143	      6.61928203	     -2.83164584	      0.41426426
      0.55016667	     -2.18455528	      5.16537948	     -3.08014959	     -0.69834256	      1.05769608	      0.31397962	     24.10688312	      0.13575801	     -0.74923642	    -10.70500708	     -1.01173673	     -4.15258220	      0.79867286	     -6.36893507	      8.41849595	     -6.05805077	    -25.72813858	      2.54918514	      7.60568473	      1.20677201	      6.56831038	     -2.63765258	      0.42921269
      0.55433333	     -2.09910549	      4.98760345	     -3.07888677	     -0.69233047	      1.05771076	      0.31423761	     23.88073245	      0.31741427	     -0.65904485	    -11.07725481	     -1.34839933	     -4.46056523	      0.84930967	     -5.92237469	      8.00261810	     -6.29100899	    -27.34763382	      1.92108698	      8.24863792	      1.41508965	      6.51456888	     -2.39627708	      0.43791210
      0.55850000	     -2.02239122	      4.76586830	     -3.08488430	     -0.68624038	      1.05773116	      0.31460682	     23.64782170	      0.55636884	     -0.60662289	    -11.43356339	     -1.72325586	     -4.90909851	      0.92714206	     -5.44687699	      7.52147466	     -6.53944784	    -29.00162934	      1.26404538	      8.98953403	      1.74953530	      6.57493947	     -2.22236093	      0.48232241
      0.56266667	     -1.95708984	      4.56211828	     -3.08213079	     -0.68032365	      1.05772577	      0.31482471	     23.44661489	      0.75437739	     -0.58368672	    -11.81509258	     -2.00039946	     -5.16692638	      0.99802955	     -4.91378607	      7.07303085	     -6.69592260	    -30.70356560	      0.59517053	      9.53173813	      2.05224112	      6.50272166	     -1.92201095	      0.49250046
      0.56683333	     -1.87476439	      4.33310449	     -3.11368868	     -0.67445403	      1.05773424	      0.31507010	     23.22853879	      0.98385982	     -0.55136279	    -12.20463466	     -2.11379387	     -5.14789231	      1.01802440	     -4.37255616	      6.60058823	     -6.86722580	    -32.45544298	      0.20616866	      9.70583590	      2.12932969	      6.33873069	     -1.67899332	      0.47409860
      0.57100000	     -1.79628111	      4.12198681	     -3.06906601	     -0.66875087	      1.05776704	      0.31504371	     23.02023362	      1.14316535	     -0.61528482	    -12.59264142	     -2.34219688	     -5.32823796	      1.05714499	     -3.78741009	      6.16217510	     -6.84480535	    -34.20544071	     -0.70981578	     10.31130164	      2.30329601	      6.26034366	     -1.21042947	      0.46812832
      0.57516667	     -1.71997838	      3.84820969	     -3.04292315	     -0.66294330	      1.05782450	      0.31523603	     22.78392977	      1.39377727	     -0.68689717	    -12.94000136	     -2.51233575	     -5.46784559	      1.09633460	     -3.18985156	      5.63476947	     -6.88064839	    -35.98851248	     -1.37036401	     10.71794823	      2.47702353	      6.18049116	     -0.87684175	      0.47974390
      0.57933333	     -1.65760482	      3.57468308	     -3.02849586	     -0.65718678	      1.05787566	      0.31534819	     22.56959002	      1.63721061	     -0.81749078	    -13.30194101	     -2.65176871	     -5.59917010	      1.13936875	     -2.55678237	      5.12242845	     -6.87946359	    -37.77369392	     -2.00261989	     11.07915746	      2.66534966	      6.12016814	     -0.50974882	      0.49497743
      0.58350000	     -1.57938679	      3.30415662	     -3.03829087	     -0.65154150	      1.05794352	      0.31548801	     22.33899204	      1.88184283	     -0.89921201	    -13.65051314	     -2.73223597	     -5.63560529	      1.17333880	     -1.91581141	      4.62158772	     -6.86428961	    -39.56819540	     -2.52273570	     11.30012554	      2.80427468	      6.01292821	     -0.16525284	      0.50290826
      0.58766667	     -1.52455565	      2.99653222	     -3.01300129	     -0.64580847	      1.05804355	      0.31548827	     22.12139382	      2.14316568	     -1.18291717	    -13.99797487	     -2.79371151	     -5.71520246	      1.22381600	     -1.24323227	      4.09370878	     -6.78541832	    -41.33908885	     -3.14264776	     11.55308898	      3.00975125	      5.98524197	      0.23741191	      0.53990971
